<svg width="89" height="88" viewBox="0 0 89 88" fill="none"
  xmlns="http://www.w3.org/2000/svg">
  <path d="M4.4 45.4C5.1 46.4 6 47.7 6.8 48.4C7 48.5 7.2 48.5 7.3 48.3C8 46.3 8.6 41.8 9 38.6C10.1 30.2 10.8 24.7 14.4 24.7C17.8 24.7 18.6 29.9 20.1 41.6C20.5 44.9 21.1 50.5 21.7 53.2C21.8 53.5 22.2 53.5 22.3 53.2C23 48.9 23.5 40.6 23.9 34.9C25.6 12 26.6 5.7 30.5 5.7C34.2 5.7 35.2 10.8 37.6 42C38.5 53.6 39.6 68.6 41.1 74.9C41.2 75.2 41.6 75.2 41.7 74.9C43 69.5 43.7 57.6 44.3 49.2C45.5 31.7 46.1 24.9 48.3 23C48.8 22.5 49.5 22.3 50.2 22.3C53.7 22.5 54.6 27.7 56.6 43.6C57.4 50.1 58.7 60.5 60.2 63.3C60.3 63.5 60.5 63.5 60.7 63.4C61.7 62.4 62.6 59.3 63.2 57.4C64.4 53.3 65.7 49.1 69.3 49.1C72.5 49.1 74.8 51 76.6 52.5C77.6 53.3 78.7 54.2 79.3 54.2C80.4 54.2 82.2 53.7 83.9 53.1C85.2 52.7 86.7 52.2 88.1 51.9V0H0V40.9C1.8 41.7 3.1 43.6 4.4 45.4Z" fill="white"/>
  <path d="M84.9 57C82.8 57.6 80.8 58.3 79.1 58.3C77 58.3 75.4 56.9 73.9 55.6C72.6 54.5 71.4 53.5001 70.1 53.2001C69.5 53.0001 68.8 53.4 68.5 54C67.9 55.2 67.3 57.3 66.9 58.6C65.6 62.9 64.1 67.8001 60 67.8001C55.9 67.8001 54.7 61.3001 52.6 44.2001C52 39.8001 51.3 34.0001 50.5 30.1C50.4 29.8 50 29.8 49.9 30.1C49.2 35.0001 48.6 43.0001 48.2 49.4001C46.5 74.5001 45.5 81.3 41.2 81.3C37 81.3 35.9 73.4001 33.5 42.2001C32.7 32.2001 31.7 19.3 30.5 12.9C30.4 12.6 30 12.6 29.9 12.9C28.9 18.2 28.2 28 27.7 35C26.3 55.3 25.6 60 22.2 60C18.5 60 17.6 54.2 16.1 42C15.7 38.9 15.2 34.8 14.6 31.8C14.5 31.5 14.1 31.5 14 31.8C13.6 34.1 13.2 36.9 12.9 39C11.8 47.5 11.1 53.1 7.3 52.8C4.5 52.6 2.7 49.9 1.1 47.6C0.8 47.2 0.4 46.6 0 46.1V88H88V56.2001C87 56.4001 86 56.7 84.9 57Z" fill="#white"/>
</svg>
