<?xml version="1.0" encoding="utf-8"?>
<!-- Generator: Adobe Illustrator 15.1.0, SVG Export Plug-In  -->
<!DOCTYPE svg PUBLIC "-//W3C//DTD SVG 1.0//EN" "http://www.w3.org/TR/2001/REC-SVG-20010904/DTD/svg10.dtd" [
	<!ENTITY ns_flows "http://ns.adobe.com/Flows/1.0/">
]>
<svg version="1.0"
	 xmlns="http://www.w3.org/2000/svg" xmlns:xlink="http://www.w3.org/1999/xlink" xmlns:a="http://ns.adobe.com/AdobeSVGViewerExtensions/3.0/"
	 x="0px" y="0px" width="337px" height="72px" viewBox="0 0 337 72" overflow="visible" enable-background="new 0 0 337 72"
	 xml:space="preserve">
<defs>
<filter id="dropshadow" height="150%">
  <feGaussianBlur in="SourceAlpha" stdDeviation="0.5"/> <!-- stdDeviation is how much to blur -->
  <feOffset dx="0.3" dy="0.3" result="offsetblur"/> <!-- how much to offset -->
  <feMerge> 
    <feMergeNode/> <!-- this contains the offset blurred image -->
    <feMergeNode in="SourceGraphic"/> <!-- this contains the element that the filter is applied to -->
  </feMerge>
</filter>
</defs>
<path fill="#FFFFFF" d="M17.662,1.344c0.986-0.18,2.691-0.268,4.662-0.268c17.303,0,19.274,8.335,19.274,25.637
	c0,10.58-0.625,25.734-19.991,25.734c-1.347,0-2.511-0.09-3.945-0.271V1.344z M6.905,52.176H0v1.167h6.905
	c5.647,0,11.206,0.27,16.854,0.27c11.565,0,29.943-4.305,29.943-27.704C53.702,2.329,35.503,0,22.054,0
	c-5.02,0-10.129,0.18-15.149,0.18H0v1.164h6.905V52.176z" filter="url(#dropshadow)" />
<path fill="#FFFFFF" d="M73.873,44.017c0,6.277-2.69,8.609-5.199,8.609c-4.663,0-4.843-5.11-4.843-7.623
	c0-6.455,4.216-7.71,7.891-9.591c1.344-0.721,1.883-1.346,2.062-1.974h0.089V44.017z M88.308,51.369
	c-0.806,0.897-1.612,1.524-2.869,1.524c-2.152,0-2.419-1.883-2.419-3.854V29.135c0-9.055-6.097-11.295-13.628-11.295
	c-6.547,0-12.821,3.046-12.821,8.605c0,3.677,2.33,4.123,4.391,4.123c1.346,0,4.484,0,4.484-3.317c0-0.714-0.448-3.855-0.448-4.392
	c0-2.96,1.972-3.944,4.302-3.944c3.588,0,4.573,2.958,4.573,5.737v4.84c0,4.037-1.702,4.664-9.771,7.354
	c-4.933,1.613-9.773,3.317-9.773,9.59c0,6.189,5.738,7.982,10.58,7.982c5.289,0,7.709-1.167,9.324-5.47h0.09
	c0.628,3.317,2.958,5.47,7.889,5.47c2.331,0,5.29,0,6.724-2.332L88.308,51.369z" filter="url(#dropshadow)" />
<path fill="#FFFFFF" d="M104.981,40.79c-3.495,0-6.008-1.164-6.008-11.298c0-4.93,0.897-9.771,6.008-9.771
	c5.289,0,5.739,4.572,5.739,10.756C110.72,39.265,108.478,40.79,104.981,40.79z M99.692,48.412c-3.317,0-5.47-1.256-5.47-3.856
	c0-1.255-0.716-2.601,2.152-4.572c1.973,0.807,5.112,1.886,9.056,1.886c9.771,0,13.447-5.832,13.447-11.12
	c0-4.395-1.792-6.456-2.957-7.8c1.971-1.524,2.51-1.883,3.135-1.883c0.988,0-0.088-1.348,0.182,0.178
	c0.178,0.983,0.537,2.869,3.317,2.869c1.971,0,3.227-1.345,3.227-3.496c0-2.424-1.434-4.125-4.305-4.125
	c-3.317,0-3.673,3.318-6.275,5.828c-2.242-1.972-5.377-3.676-9.861-3.676c-9.055,0-14.525,5.471-14.525,12.104
	c0,4.663,2.869,6.993,4.66,8.516c-6.274,3.678-6.811,8.519-6.811,9.685c0,6.813,5.018,5.467,9.054,5.467
	c-4.484,1.256-7.799,2.156-7.799,7.895c0,2.871,1.345,9.776,13.807,9.776c11.027,0,17.482-7.086,17.482-15.336
	c0-9.958-6.455-8.16-13.897-8.16l-8.338-0.179H99.692z M96.285,59.621c0-3.054,1.529-5.164,4.752-5.116h7.709
	c3.05,0,7.531-1.074,7.531,5.296c0,6.277-5.109,10.849-10.759,10.849c-7.531,0-9.233-5.11-9.233-8.965V59.621z" filter="url(#dropshadow)"/>
<path fill="#FFFFFF" d="M125.061,41.685h0.985c2.334,6.011,4.575,11.658,11.476,11.658c1.705,0,6.636,0,6.636-6.187
	c0-1.972-0.537-4.125-5.827-6.188l-6.097-2.42c-2.779-1.074-6.815-3.585-6.815-9.233c0-6.277,5.022-11.475,12.284-11.475
	c3.677,0,6.725,1.971,7.891,1.971c1.075,0,1.253-0.537,1.434-0.986h0.985v9.774h-0.896c-2.063-5.203-3.765-9.684-9.952-9.684
	c-3.316,0-6.544,1.884-6.544,5.558c0,1.525,0.357,3.944,5.467,5.738l6.279,2.331c5.376,2.062,8.246,5.29,8.246,10.4
	c0,6.992-6.185,11.477-12.731,11.477c-3.675,0-8.696-2.243-10.489-2.243c-0.808,0-1.077,0.357-1.347,1.167h-0.985V41.685z" filter="url(#dropshadow)"/>
<path fill="#FFFFFF" d="M173.115,44.017c0,6.277-2.691,8.609-5.201,8.609c-4.661,0-4.842-5.11-4.842-7.623
	c0-6.455,4.127-7.71,7.892-9.591c1.345-0.721,1.884-1.346,1.973-1.974h0.179V44.017z M187.466,51.369
	c-0.808,0.897-1.527,1.524-2.785,1.524c-2.149,0-2.51-1.883-2.51-3.854V29.135c0-9.055-6.097-11.295-13.627-11.295
	c-6.457,0-12.732,3.046-12.732,8.605c0,3.677,2.33,4.123,4.302,4.123c1.346,0,4.573,0,4.573-3.317c0-0.714-0.448-3.855-0.448-4.392
	c0-2.96,1.973-3.944,4.213-3.944c3.677,0,4.664,2.958,4.664,5.737v4.84c0,4.037-1.702,4.664-9.771,7.354
	c-4.934,1.613-9.863,3.317-9.863,9.59c0,6.189,5.827,7.982,10.58,7.982c5.288,0,7.8-1.167,9.324-5.47h0.179
	c0.629,3.317,2.867,5.47,7.889,5.47c2.332,0,5.296,0,6.731-2.332L187.466,51.369z" filter="url(#dropshadow)"/>
<polyline fill="#FFFFFF" points="186.121,20.08 181.99,20.08 181.99,18.914 201.56,18.914 201.56,20.08 196.178,20.08 
	205.324,42.315 213.484,20.08 208.103,20.08 208.103,18.914 216.656,18.914 216.656,20.08 214.74,20.08 201.56,54.508 
	186.121,20.08 " filter="url(#dropshadow)"/>
<path fill="#FFFFFF" d="M236.261,29.314c0-6.276,5.021-11.475,12.195-11.475c3.766,0,6.723,1.971,7.977,1.971
	c0.986,0,1.258-0.537,1.348-0.985h1.074v9.772h-0.984c-1.973-5.201-3.678-9.683-9.863-9.683c-3.318,0-6.635,1.883-6.635,5.558
	c0,1.525,0.451,3.944,5.473,5.738l6.363,2.331c5.377,2.062,8.156,5.29,8.156,10.4c0,6.993-6.186,11.477-12.729,11.477
	c-3.676,0-8.605-2.244-10.402-2.244c-0.805,0-1.072,0.359-1.342,1.167h-1.078V41.686h1.078c2.326,6.01,4.48,11.656,11.473,11.656
	c1.703,0,6.637,0,6.637-6.186c0-1.973-0.629-4.126-5.918-6.188l-6.008-2.421C240.298,37.475,236.261,34.962,236.261,29.314" filter="url(#dropshadow)"/>
<path fill="#FFFFFF" d="M273.652,32.093c0.178-5.468,0.357-13.178,7.084-13.178c4.842,0,4.842,5.558,4.842,7.798v5.38H273.652z
	 M295.617,33.168c0-10.847-7.801-15.328-14.703-15.328c-9.684,0-17.393,8.963-17.393,18.198c0,11.478,8.066,18.38,18.467,18.38
	c8.607,0,12.191-6.097,13.182-9.952l-1.078-0.448c-0.176,1.884-3.135,9.324-11.025,9.324c-8.875,0-9.414-8.876-9.414-16.496v-3.678
	H295.617z" filter="url(#dropshadow)"/>
<polygon fill="#FFFFFF" points="229.625,52.176 229.625,20.08 231.775,20.08 231.775,19.99 231.775,18.914 229.625,18.914 
	218.771,18.914 218.771,20.08 220.57,20.08 220.57,52.176 216.982,52.176 216.982,53.343 233.212,53.343 233.212,52.176 " filter="url(#dropshadow)"/>
<path fill="#FFFFFF" d="M300.371,19.99h-4.928v-1.076h13.893v7.98h0.09c0.807-1.973,3.59-8.787,12.465-8.787
	c6.455,0,10.398,4.573,10.398,11.385v22.684h4.93v1.076h-18.646v-1.076h4.57V26.804c0-4.393-1.793-6.455-4.66-6.455
	c-4.754,0-9.057,4.844-9.057,14.614v17.213h4.754v1.076h-18.737v-1.076h4.928" filter="url(#dropshadow)"/>
<path fill="#CC072A" d="M219.921,7.673c0-3.226,2.598-5.828,5.826-5.828s5.828,2.603,5.828,5.828c0,3.228-2.6,5.827-5.828,5.827
	S219.921,10.9,219.921,7.673" filter="url(#dropshadow)"/>
</svg>
