<svg width="999" height="214" viewBox="0 0 999 214" fill="none"
  xmlns="http://www.w3.org/2000/svg">
  <path d="M11.4388 120.105V83.1969L100.58 120.105H11.4388Z" fill="white"/>
  <path d="M34.0625 135.273L124.104 123.41L51.4332 165.37L34.0625 135.273Z" fill="white"/>
  <path d="M78.6874 166.204L146.239 114.354L106.894 182.488L78.6874 166.204Z" fill="white"/>
  <path d="M130.398 169.169L160.814 95.7114V169.169H130.398Z" fill="white"/>
  <path d="M164.163 72.1421L198.271 131.227L173.809 145.343L164.163 72.1421Z" fill="white"/>
  <path d="M155.224 49.9636L209.781 81.4636L196.743 104.057L155.224 49.9636Z" fill="white"/>
  <path d="M136.249 35.4408H194.018V59.3608L136.249 35.4408Z" fill="white"/>
  <path d="M157.953 5.94016L168.829 24.7842L112.451 32.2122L157.953 5.94016Z" fill="white"/>
  <path d="M113.971 -2.64406e-06L130.934 9.78666L90.3153 40.9733L113.971 -2.64406e-06Z" fill="white"/>
  <path d="M75.7604 17.9336H93.1817L75.7604 60.0163V17.9336Z" fill="white"/>
  <path d="M0 58.254L81.7227 105.439L19.5347 24.4127L0 58.254Z" fill="white"/>
  <path d="M286.587 140.738H291.879V150.564C295.443 144.842 300.41 139.442 310.238 139.442C319.849 139.442 325.789 144.948 328.813 151.32C332.377 145.164 338.317 139.442 348.683 139.442C361.75 139.442 369.85 148.62 369.85 162.443V195.814H364.559V163.092C364.559 151.212 358.402 144.302 348.251 144.302C338.963 144.302 330.865 151.43 330.865 163.74V195.814H325.573V162.767C325.573 151.32 319.31 144.302 309.482 144.302C299.655 144.302 291.879 152.94 291.879 164.063V195.814H286.587V140.738Z" fill="white"/>
  <path d="M436.379 168.492V168.276C436.379 154.993 426.444 144.409 413.7 144.409C400.634 144.409 391.239 155.101 391.239 168.06V168.276C391.239 181.558 401.174 192.141 413.916 192.141C426.983 192.141 436.379 181.45 436.379 168.492ZM385.515 168.492V168.276C385.515 152.833 397.502 139.442 413.916 139.442C430.223 139.442 442.103 152.617 442.103 168.06V168.276C442.103 183.718 430.116 197.109 413.7 197.109C397.395 197.109 385.515 183.934 385.515 168.492Z" fill="white"/>
  <path d="M458.414 116.98H463.706V150.997C467.378 144.517 473.533 139.443 483.577 139.443C497.507 139.443 505.607 148.945 505.607 162.12V195.813H500.315V163.092C500.315 151.753 493.943 144.301 482.821 144.301C472.021 144.301 463.706 152.508 463.706 163.955V195.813H458.414V116.98Z" fill="white"/>
  <path d="M571.702 168.492V168.276C571.702 154.993 561.767 144.409 549.023 144.409C535.957 144.409 526.562 155.101 526.562 168.06V168.276C526.562 181.558 536.497 192.141 549.239 192.141C562.306 192.141 571.702 181.45 571.702 168.492ZM520.838 168.492V168.276C520.838 152.833 532.825 139.442 549.239 139.442C565.546 139.442 577.426 152.617 577.426 168.06V168.276C577.426 183.718 565.439 197.109 549.023 197.109C532.718 197.109 520.838 183.934 520.838 168.492Z" fill="white"/>
  <path d="M594.494 116.98H599.786V195.813H594.494V116.98Z" fill="white"/>
  <path d="M623.546 181.666V145.597H615.554V140.738H623.546V123.135H628.836V140.738H648.167V145.597H628.836V181.126C628.836 189.01 633.48 191.817 639.851 191.817C642.551 191.817 644.819 191.278 647.951 189.873V194.842C645.143 196.138 642.444 196.785 638.988 196.785C630.458 196.785 623.546 192.141 623.546 181.666Z" fill="white"/>
  <path d="M742.447 165.683V165.468C742.447 152.724 731.108 144.518 719.661 144.518C708.105 144.518 698.387 152.508 698.387 165.36V165.576C698.387 177.994 708.321 186.634 719.661 186.634C731.108 186.634 742.447 178.211 742.447 165.683ZM695.147 204.884L698.279 200.564C704.865 205.64 712.425 208.34 720.525 208.34C733.16 208.34 742.124 201.104 742.124 186.958V178.967C737.371 185.77 730.029 191.71 719.121 191.71C705.839 191.71 692.663 181.558 692.663 165.791V165.576C692.663 149.702 705.839 139.442 719.121 139.442C730.137 139.442 737.587 145.272 742.124 151.754V140.738H747.416V187.282C747.416 195.272 744.823 201.538 740.396 205.964C735.643 210.715 728.517 213.308 720.417 213.308C711.239 213.308 702.705 210.5 695.147 204.884" fill="white"/>
  <path d="M767.505 140.738H772.797V156.396C777.117 146.568 786.296 139.442 797.203 139.874V145.706H796.663C783.921 145.706 772.797 155.316 772.797 173.243V195.814H767.505V140.738Z" fill="white"/>
  <path d="M855.09 168.492V168.276C855.09 154.993 845.155 144.409 832.411 144.409C819.345 144.409 809.95 155.101 809.95 168.06V168.276C809.95 181.558 819.885 192.141 832.627 192.141C845.694 192.141 855.09 181.45 855.09 168.492ZM804.226 168.492V168.276C804.226 152.833 816.213 139.442 832.627 139.442C848.934 139.442 860.814 152.617 860.814 168.06V168.276C860.814 183.718 848.827 197.109 832.411 197.109C816.106 197.109 804.226 183.934 804.226 168.492Z" fill="white"/>
  <path d="M876.046 174.43V140.737H881.338V173.458C881.338 184.797 887.708 192.249 898.832 192.249C909.63 192.249 917.947 184.042 917.947 172.594V140.737H923.239V195.813H917.947V185.554C914.275 192.033 908.119 197.109 898.075 197.109C884.144 197.109 876.046 187.606 876.046 174.43Z" fill="white"/>
  <path d="M992.357 168.492V168.276C992.357 153.804 982.314 144.518 970.758 144.518C959.311 144.518 948.295 154.129 948.295 168.168V168.384C948.295 182.53 959.311 192.033 970.758 192.033C982.745 192.033 992.357 183.286 992.357 168.492ZM943.329 140.738H948.619V153.049C953.371 145.813 960.39 139.442 971.298 139.442C984.581 139.442 998.079 150.132 998.079 168.06V168.276C998.079 186.202 984.581 197.109 971.298 197.109C960.282 197.109 953.155 190.846 948.619 183.934V213.092H943.329V140.738Z" fill="white"/>
  <path d="M285.437 47.2527H302.695V55.882C306.671 50.7727 311.893 46.1167 320.636 46.1167C328.584 46.1167 334.603 49.638 337.781 55.7687C343.119 49.5234 349.476 46.1167 357.765 46.1167C370.596 46.1167 378.317 53.838 378.317 68.486V108.114H361.059V74.1633C361.059 65.9874 357.425 61.786 350.953 61.786C344.48 61.786 340.507 65.9874 340.507 74.1633V108.114H323.247V74.1633C323.247 65.9874 319.615 61.786 313.141 61.786C306.671 61.786 302.695 65.9874 302.695 74.1633V108.114H285.437V47.2527Z" fill="white"/>
  <path d="M439.186 78.0235V77.7968C439.186 68.8261 432.714 60.9915 423.176 60.9915C413.298 60.9915 407.393 68.5995 407.393 77.5701V77.7968C407.393 86.7675 413.866 94.6021 423.404 94.6021C433.281 94.6021 439.186 86.9941 439.186 78.0235ZM390.362 78.0235V77.7968C390.362 60.3101 404.441 46.1168 423.404 46.1168C442.252 46.1168 456.217 60.0835 456.217 77.5701V77.7968C456.217 95.2821 442.138 109.475 423.176 109.475C404.328 109.475 390.362 95.5088 390.362 78.0235Z" fill="white"/>
  <path d="M468.712 47.2527H485.971V59.5153C489.491 51.114 495.168 45.6633 505.387 46.1167V64.1713H504.479C493.011 64.1713 485.971 71.098 485.971 85.6313V108.114H468.712V47.2527Z" fill="white"/>
  <path d="M554.441 72.9141C553.419 65.1928 548.877 59.9701 541.611 59.9701C534.459 59.9701 529.803 65.0795 528.44 72.9141H554.441ZM511.523 78.0235V77.7968C511.523 60.4235 523.899 46.1168 541.611 46.1168C561.936 46.1168 571.247 61.9008 571.247 79.1595C571.247 80.5221 571.133 82.1115 571.02 83.7008H528.667C530.369 91.5355 535.82 95.6235 543.541 95.6235C549.332 95.6235 553.533 93.8061 558.303 89.3781L568.181 98.1208C562.504 105.162 554.328 109.475 543.313 109.475C525.033 109.475 511.523 96.6448 511.523 78.0235" fill="white"/>
  <path d="M584.876 25.224H602.135V108.113H584.876V25.224Z" fill="white"/>
  <path d="M662.543 77.797V77.5703C662.543 67.4636 655.844 60.765 647.782 60.765C639.72 60.765 632.907 67.3503 632.907 77.5703V77.797C632.907 87.9023 639.72 94.6023 647.782 94.6023C655.844 94.6023 662.543 87.9023 662.543 77.797ZM615.648 77.797V77.5703C615.648 57.245 628.934 46.117 643.352 46.117C652.551 46.117 658.228 50.3183 662.315 55.201V25.225H679.574V108.113H662.315V99.3703C658.115 105.048 652.324 109.249 643.352 109.249C629.16 109.249 615.648 98.121 615.648 77.797Z" fill="white"/>
</svg>
