<?xml version="1.0" encoding="UTF-8" standalone="no"?>
<svg
   xmlns:dc="http://purl.org/dc/elements/1.1/"
   xmlns:cc="http://creativecommons.org/ns#"
   xmlns:rdf="http://www.w3.org/1999/02/22-rdf-syntax-ns#"
   xmlns:svg="http://www.w3.org/2000/svg"
   xmlns="http://www.w3.org/2000/svg"
   xmlns:sodipodi="http://sodipodi.sourceforge.net/DTD/sodipodi-0.dtd"
   xmlns:inkscape="http://www.inkscape.org/namespaces/inkscape"
   inkscape:version="1.0rc1 (09960d6, 2020-04-09)"
   sodipodi:docname="moholt group_fc.svg"
   viewBox="0 0 1181.3867 391.70532"
   height="391.70532"
   width="1181.3867"
   xml:space="preserve"
   id="svg833"
   version="1.1"><metadata
     id="metadata839"><rdf:RDF><cc:Work
         rdf:about=""><dc:format>image/svg+xml</dc:format><dc:type
           rdf:resource="http://purl.org/dc/dcmitype/StillImage" /><dc:title></dc:title></cc:Work></rdf:RDF></metadata><defs
     id="defs837"><clipPath
       id="clipPath893"
       clipPathUnits="userSpaceOnUse"><path
         inkscape:connector-curvature="0"
         id="path891"
         d="M 0,293.779 H 886.04 V 0 H 0 Z" /></clipPath></defs><sodipodi:namedview
     inkscape:current-layer="g841"
     inkscape:window-maximized="0"
     inkscape:window-y="25"
     inkscape:window-x="0"
     inkscape:cy="195.85266"
     inkscape:cx="590.69336"
     inkscape:zoom="0.60268157"
     showgrid="false"
     id="namedview835"
     inkscape:window-height="947"
     inkscape:window-width="1503"
     inkscape:pageshadow="2"
     inkscape:pageopacity="0"
     guidetolerance="10"
     gridtolerance="10"
     objecttolerance="10"
     borderopacity="1"
     bordercolor="#666666"
     pagecolor="#ffffff" /><g
     transform="matrix(1.3333333,0,0,-1.3333333,0,391.70533)"
     inkscape:label="moholt group_fc"
     inkscape:groupmode="layer"
     id="g841"><g
       transform="translate(76.6707,148.1164)"
       id="g843"><path
         inkscape:connector-curvature="0"
         id="path845"
         style="fill:#1ab3c3;fill-opacity:1;fill-rule:nonzero;stroke:none"
         d="M 0,0 V 27.681 L 66.856,0 Z" /></g><g
       transform="translate(93.6385,136.7404)"
       id="g847"><path
         inkscape:connector-curvature="0"
         id="path849"
         style="fill:#1ab3c3;fill-opacity:1;fill-rule:nonzero;stroke:none"
         d="M 0,0 67.531,8.897 13.028,-22.573 Z" /></g><g
       transform="translate(127.1072,113.5417)"
       id="g851"><path
         inkscape:connector-curvature="0"
         id="path853"
         style="fill:#1ab3c3;fill-opacity:1;fill-rule:nonzero;stroke:none"
         d="M 0,0 50.664,38.888 21.155,-12.213 Z" /></g><g
       transform="translate(165.8904,111.3185)"
       id="g855"><path
         inkscape:connector-curvature="0"
         id="path857"
         style="fill:#1ab3c3;fill-opacity:1;fill-rule:nonzero;stroke:none"
         d="M 0,0 22.812,55.093 V 0 Z" /></g><g
       transform="translate(191.2137,184.0885)"
       id="g859"><path
         inkscape:connector-curvature="0"
         id="path861"
         style="fill:#1ab3c3;fill-opacity:1;fill-rule:nonzero;stroke:none"
         d="M 0,0 25.581,-44.314 7.235,-54.901 Z" /></g><g
       transform="translate(184.5096,200.7223)"
       id="g863"><path
         inkscape:connector-curvature="0"
         id="path865"
         style="fill:#1ab3c3;fill-opacity:1;fill-rule:nonzero;stroke:none"
         d="M 0,0 40.918,-23.625 31.139,-40.57 Z" /></g><g
       transform="translate(170.2781,211.6144)"
       id="g867"><path
         inkscape:connector-curvature="0"
         id="path869"
         style="fill:#1ab3c3;fill-opacity:1;fill-rule:nonzero;stroke:none"
         d="M 0,0 H 43.327 V -17.94 Z" /></g><g
       transform="translate(186.5565,233.7399)"
       id="g871"><path
         inkscape:connector-curvature="0"
         id="path873"
         style="fill:#1ab3c3;fill-opacity:1;fill-rule:nonzero;stroke:none"
         d="m 0,0 8.157,-14.133 -42.284,-5.571 z" /></g><g
       transform="translate(153.5701,238.195)"
       id="g875"><path
         inkscape:connector-curvature="0"
         id="path877"
         style="fill:#1ab3c3;fill-opacity:1;fill-rule:nonzero;stroke:none"
         d="M 0,0 12.722,-7.34 -17.742,-30.73 Z" /></g><g
       transform="translate(124.9119,224.7448)"
       id="g879"><path
         inkscape:connector-curvature="0"
         id="path881"
         style="fill:#1ab3c3;fill-opacity:1;fill-rule:nonzero;stroke:none"
         d="M 0,0 H 13.066 L 0,-31.562 Z" /></g><g
       transform="translate(68.0916,194.5045)"
       id="g883"><path
         inkscape:connector-curvature="0"
         id="path885"
         style="fill:#1ab3c3;fill-opacity:1;fill-rule:nonzero;stroke:none"
         d="M 0,0 61.292,-35.389 14.651,25.381 Z" /></g><g
       id="g887"><g
         clip-path="url(#clipPath893)"
         id="g889"><g
           transform="translate(283.032,132.6418)"
           id="g895"><path
             inkscape:connector-curvature="0"
             id="path897"
             style="fill:#1ab3c3;fill-opacity:1;fill-rule:nonzero;stroke:none"
             d="m 0,0 h 3.969 v -7.37 c 2.673,4.292 6.398,8.342 13.769,8.342 7.208,0 11.663,-4.13 13.931,-8.909 2.673,4.617 7.128,8.909 14.903,8.909 9.8,0 15.875,-6.884 15.875,-17.251 v -25.028 h -3.968 v 24.541 c 0,8.91 -4.618,14.093 -12.231,14.093 -6.966,0 -13.04,-5.346 -13.04,-14.579 v -24.055 h -3.969 v 24.785 c 0,8.585 -4.697,13.849 -12.068,13.849 -7.37,0 -13.202,-6.479 -13.202,-14.821 V -41.307 H 0 Z" /></g><g
           transform="translate(395.3758,111.8263)"
           id="g899"><path
             inkscape:connector-curvature="0"
             id="path901"
             style="fill:#1ab3c3;fill-opacity:1;fill-rule:nonzero;stroke:none"
             d="m 0,0 v 0.162 c 0,9.962 -7.451,17.9 -17.009,17.9 -9.8,0 -16.846,-8.019 -16.846,-17.738 V 0.162 c 0,-9.962 7.451,-17.899 17.008,-17.899 C -7.047,-17.737 0,-9.719 0,0 m -38.148,0 v 0.162 c 0,11.582 8.99,21.625 21.301,21.625 12.23,0 21.14,-9.881 21.14,-21.463 V 0.162 c 0,-11.582 -8.99,-21.625 -21.302,-21.625 -12.229,0 -21.139,9.881 -21.139,21.463" /></g><g
           transform="translate(411.9022,150.4601)"
           id="g903"><path
             inkscape:connector-curvature="0"
             id="path905"
             style="fill:#1ab3c3;fill-opacity:1;fill-rule:nonzero;stroke:none"
             d="m 0,0 h 3.969 v -25.513 c 2.754,4.86 7.37,8.666 14.903,8.666 10.448,0 16.523,-7.127 16.523,-17.008 v -25.27 h -3.969 v 24.541 c 0,8.504 -4.779,14.093 -13.121,14.093 -8.1,0 -14.336,-6.155 -14.336,-14.74 V -59.125 H 0 Z" /></g><g
           transform="translate(496.868,111.8263)"
           id="g907"><path
             inkscape:connector-curvature="0"
             id="path909"
             style="fill:#1ab3c3;fill-opacity:1;fill-rule:nonzero;stroke:none"
             d="m 0,0 v 0.162 c 0,9.962 -7.451,17.9 -17.009,17.9 -9.8,0 -16.846,-8.019 -16.846,-17.738 V 0.162 c 0,-9.962 7.451,-17.899 17.008,-17.899 C -7.047,-17.737 0,-9.719 0,0 m -38.148,0 v 0.162 c 0,11.582 8.99,21.625 21.301,21.625 12.23,0 21.14,-9.881 21.14,-21.463 V 0.162 c 0,-11.582 -8.99,-21.625 -21.302,-21.625 -12.229,0 -21.139,9.881 -21.139,21.463" /></g><path
           inkscape:connector-curvature="0"
           id="path911"
           style="fill:#1ab3c3;fill-opacity:1;fill-rule:nonzero;stroke:none"
           d="m 513.962,150.46 h 3.969 V 91.335 h -3.969 z" /><g
           transform="translate(535.7508,101.9455)"
           id="g913"><path
             inkscape:connector-curvature="0"
             id="path915"
             style="fill:#1ab3c3;fill-opacity:1;fill-rule:nonzero;stroke:none"
             d="m 0,0 v 27.052 h -5.994 v 3.644 H 0 V 43.898 H 3.968 V 30.696 H 18.466 V 27.052 H 3.968 V 0.405 c 0,-5.913 3.483,-8.018 8.261,-8.018 2.025,0 3.726,0.404 6.075,1.458 v -3.727 c -2.106,-0.972 -4.13,-1.457 -6.722,-1.457 C 5.184,-11.339 0,-7.856 0,0" /></g><g
           transform="translate(624.9266,113.9328)"
           id="g917"><path
             inkscape:connector-curvature="0"
             id="path919"
             style="fill:#1ab3c3;fill-opacity:1;fill-rule:nonzero;stroke:none"
             d="m 0,0 v 0.161 c 0,9.558 -8.504,15.713 -17.089,15.713 -8.667,0 -15.956,-5.993 -15.956,-15.632 V 0.08 c 0,-9.313 7.451,-15.793 15.956,-15.793 C -8.504,-15.713 0,-9.396 0,0 m -35.475,-29.401 2.349,3.24 c 4.94,-3.807 10.61,-5.832 16.685,-5.832 9.476,0 16.199,5.427 16.199,16.037 v 5.993 c -3.565,-5.102 -9.071,-9.557 -17.252,-9.557 -9.962,0 -19.844,7.614 -19.844,19.439 V 0.08 c 0,11.906 9.882,19.601 19.844,19.601 8.262,0 13.849,-4.373 17.252,-9.234 v 8.262 h 3.969 v -34.908 c 0,-5.993 -1.945,-10.692 -5.265,-14.012 -3.565,-3.563 -8.909,-5.508 -14.984,-5.508 -6.884,0 -13.284,2.106 -18.953,6.318" /></g><g
           transform="translate(643.7205,132.6418)"
           id="g921"><path
             inkscape:connector-curvature="0"
             id="path923"
             style="fill:#1ab3c3;fill-opacity:1;fill-rule:nonzero;stroke:none"
             d="m 0,0 h 3.969 v -11.744 c 3.24,7.371 10.124,12.716 18.304,12.392 v -4.374 h -0.405 c -9.556,0 -17.899,-7.208 -17.899,-20.653 V -41.307 H 0 Z" /></g><g
           transform="translate(709.409,111.8263)"
           id="g925"><path
             inkscape:connector-curvature="0"
             id="path927"
             style="fill:#1ab3c3;fill-opacity:1;fill-rule:nonzero;stroke:none"
             d="m 0,0 v 0.162 c 0,9.962 -7.451,17.9 -17.009,17.9 -9.8,0 -16.846,-8.019 -16.846,-17.738 V 0.162 c 0,-9.962 7.451,-17.899 17.008,-17.899 C -7.047,-17.737 0,-9.719 0,0 m -38.148,0 v 0.162 c 0,11.582 8.99,21.625 21.301,21.625 12.23,0 21.14,-9.881 21.14,-21.463 V 0.162 c 0,-11.582 -8.99,-21.625 -21.302,-21.625 -12.229,0 -21.139,9.881 -21.139,21.463" /></g><g
           transform="translate(725.1258,107.3722)"
           id="g929"><path
             inkscape:connector-curvature="0"
             id="path931"
             style="fill:#1ab3c3;fill-opacity:1;fill-rule:nonzero;stroke:none"
             d="M 0,0 V 25.27 H 3.969 V 0.729 c 0,-8.504 4.778,-14.093 13.121,-14.093 8.098,0 14.336,6.155 14.336,14.741 V 25.27 h 3.969 v -41.307 h -3.969 v 7.694 C 28.672,-13.202 24.055,-17.009 16.522,-17.009 6.074,-17.009 0,-9.882 0,0" /></g><g
           transform="translate(812.3592,111.8263)"
           id="g933"><path
             inkscape:connector-curvature="0"
             id="path935"
             style="fill:#1ab3c3;fill-opacity:1;fill-rule:nonzero;stroke:none"
             d="m 0,0 v 0.162 c 0,10.854 -7.532,17.818 -16.199,17.818 -8.585,0 -16.847,-7.208 -16.847,-17.737 V 0.081 c 0,-10.61 8.262,-17.737 16.847,-17.737 C -7.209,-17.656 0,-11.096 0,0 m -36.771,20.815 h 3.968 v -9.233 c 3.564,5.427 8.828,10.205 17.009,10.205 9.962,0 20.086,-8.017 20.086,-21.463 V 0.162 c 0,-13.445 -10.124,-21.625 -20.086,-21.625 -8.262,0 -13.607,4.697 -17.009,9.881 V -33.45 h -3.968 z" /></g><g
           transform="translate(282.1697,202.7555)"
           id="g937"><path
             inkscape:connector-curvature="0"
             id="path939"
             style="fill:#1ab3c3;fill-opacity:1;fill-rule:nonzero;stroke:none"
             d="m 0,0 h 12.943 v -6.472 c 2.982,3.832 6.899,7.324 13.456,7.324 5.961,0 10.475,-2.641 12.859,-7.239 4.003,4.684 8.771,7.239 14.988,7.239 9.623,0 15.414,-5.791 15.414,-16.777 V -45.646 H 56.716 v 25.463 c 0,6.132 -2.725,9.283 -7.579,9.283 -4.855,0 -7.835,-3.151 -7.835,-9.283 V -45.646 H 28.357 v 25.463 c 0,6.132 -2.724,9.283 -7.579,9.283 -4.853,0 -7.835,-3.151 -7.835,-9.283 V -45.646 H 0 Z" /></g><g
           transform="translate(397.4813,179.6774)"
           id="g941"><path
             inkscape:connector-curvature="0"
             id="path943"
             style="fill:#1ab3c3;fill-opacity:1;fill-rule:nonzero;stroke:none"
             d="m 0,0 v 0.17 c 0,6.728 -4.854,12.604 -12.008,12.604 -7.408,0 -11.837,-5.706 -11.837,-12.434 V 0.17 c 0,-6.728 4.855,-12.604 12.008,-12.604 C -4.429,-12.434 0,-6.728 0,0 m -36.618,0 v 0.17 c 0,13.115 10.559,23.76 24.781,23.76 14.136,0 24.61,-10.475 24.61,-23.59 V 0.17 c 0,-13.114 -10.559,-23.759 -24.781,-23.759 -14.136,0 -24.61,10.475 -24.61,23.589" /></g><g
           transform="translate(419.6258,202.7555)"
           id="g945"><path
             inkscape:connector-curvature="0"
             id="path947"
             style="fill:#1ab3c3;fill-opacity:1;fill-rule:nonzero;stroke:none"
             d="m 0,0 h 12.944 v -9.197 c 2.64,6.301 6.898,10.389 14.562,10.049 v -13.541 h -0.681 c -8.601,0 -13.881,-5.195 -13.881,-16.095 V -45.646 H 0 Z" /></g><g
           transform="translate(483.9227,183.5094)"
           id="g949"><path
             inkscape:connector-curvature="0"
             id="path951"
             style="fill:#1ab3c3;fill-opacity:1;fill-rule:nonzero;stroke:none"
             d="m 0,0 c -0.767,5.791 -4.173,9.708 -9.623,9.708 -5.364,0 -8.856,-3.832 -9.878,-9.708 z m -32.189,-3.832 v 0.17 c 0,13.03 9.282,23.76 22.566,23.76 15.244,0 22.227,-11.838 22.227,-24.782 0,-1.022 -0.085,-2.214 -0.17,-3.406 h -31.765 c 1.277,-5.876 5.365,-8.942 11.156,-8.942 4.343,0 7.494,1.363 11.071,4.684 l 7.409,-6.557 c -4.258,-5.281 -10.39,-8.516 -18.651,-8.516 -13.71,0 -23.843,9.623 -23.843,23.589" /></g><path
           inkscape:connector-curvature="0"
           id="path953"
           style="fill:#1ab3c3;fill-opacity:1;fill-rule:nonzero;stroke:none"
           d="m 506.749,219.277 h 12.944 V 157.11 h -12.944 z" /><g
           transform="translate(564.9988,179.8473)"
           id="g955"><path
             inkscape:connector-curvature="0"
             id="path957"
             style="fill:#1ab3c3;fill-opacity:1;fill-rule:nonzero;stroke:none"
             d="m 0,0 v 0.17 c 0,7.58 -5.024,12.604 -11.071,12.604 -6.046,0 -11.156,-4.939 -11.156,-12.604 V 0 c 0,-7.579 5.11,-12.604 11.156,-12.604 C -5.024,-12.604 0,-7.579 0,0 m -35.171,0 v 0.17 c 0,15.244 9.964,23.59 20.778,23.59 6.899,0 11.157,-3.151 14.222,-6.813 V 39.429 H 12.773 V -22.737 H -0.171 v 6.557 c -3.15,-4.258 -7.493,-7.409 -14.222,-7.409 -10.644,0 -20.778,8.346 -20.778,23.589" /></g></g></g></g></svg>
