<svg width="83" height="60" viewBox="0 0 83 60" fill="none"
  xmlns="http://www.w3.org/2000/svg">
  <path d="M2.91406 57.0781V34.5625C3.63672 35.3242 4.47266 35.9102 5.51562 36C8.03516 36.2305 8.51953 32.4609 9.24219 26.7773C9.41797 25.3867 9.66406 23.4687 9.95312 21.9492C9.99609 21.7344 10.3086 21.7344 10.3516 21.9492C10.7383 23.918 11.0859 26.668 11.3516 28.7539C12.3789 36.8945 12.9844 40.8086 15.4492 40.8086C17.75 40.8086 18.2109 37.6406 19.1914 24.0859C19.5313 19.3437 20.0039 12.793 20.6875 9.24609C20.7305 9.02734 21.043 9.03125 21.082 9.25C21.8867 13.5117 22.5508 22.1602 23.0664 28.8906C24.6719 49.8047 25.4531 55.0703 28.2539 55.0703C31.1016 55.0703 31.8086 50.5117 32.9219 33.6836C33.207 29.4062 33.5625 24.0312 34.0391 20.75C34.0742 20.5273 34.3906 20.5156 34.4375 20.7383C34.9727 23.3438 35.457 27.2383 35.8242 30.1562C37.2578 41.6523 38.0586 45.9961 40.7891 45.9961C43.5859 45.9961 44.5703 42.7266 45.4414 39.8438C45.7031 38.9727 46.1289 37.5625 46.5312 36.7578C46.7305 36.3633 47.1719 36.1328 47.6016 36.2422C48.4961 36.4648 49.3086 37.1406 50.1562 37.8516C51.207 38.7305 52.293 39.6367 53.6719 39.6367C54.7148 39.6367 55.9531 39.2773 57.2695 38.875V57.0781H2.91406ZM57.2695 2.72266V36.0781C57.0938 36.1289 56.9102 36.1797 56.7422 36.2344C55.582 36.5898 54.3828 36.957 53.6719 36.957C53.2656 36.957 52.5273 36.3398 51.8711 35.793C50.6406 34.7617 49.1055 33.4844 46.9844 33.4844C44.5586 33.4844 43.7031 36.3242 42.875 39.0703C42.4766 40.3828 41.8594 42.4297 41.2031 43.0977C41.1055 43.1953 40.9453 43.168 40.8789 43.043C39.8984 41.1445 39.0234 34.1484 38.4844 29.8242C37.1523 19.1523 36.5234 15.6914 34.1953 15.5234C33.7344 15.4922 33.2813 15.6484 32.9141 15.9648C31.457 17.2383 31.0234 21.7891 30.2461 33.5078C29.8711 39.1602 29.3438 47.1289 28.5 50.75C28.4531 50.957 28.1562 50.957 28.1094 50.75C27.1094 46.5352 26.3359 36.4336 25.7383 28.6836C24.1328 7.76562 23.4648 4.35547 20.9727 4.35547C18.3047 4.35547 17.625 8.51953 16.5156 23.8945C16.2422 27.7109 15.8984 33.2852 15.457 36.1797C15.4258 36.4023 15.1133 36.4102 15.0664 36.1953C14.6484 34.3555 14.2852 30.6055 14.0078 28.418C13.0195 20.5781 12.4844 17.1133 10.1875 17.1133C7.77344 17.1133 7.30078 20.8242 6.58203 26.4375C6.3125 28.5547 5.92578 31.5742 5.46875 32.918C5.42188 33.0586 5.25391 33.1016 5.14453 33.0078C4.61328 32.5469 4.01172 31.6836 3.53516 31C3.33203 30.7031 3.125 30.4102 2.91406 30.1211V2.72266H57.2695ZM0.441406 59.5469H59.7383V0.253906H0.441406V59.5469Z" fill="#595959"/>
  <path d="M2.91406 57.0781V34.5625C3.63672 35.3242 4.47266 35.9102 5.51562 36C8.03516 36.2305 8.51953 32.4609 9.24219 26.7773C9.41797 25.3867 9.66406 23.4687 9.95312 21.9492C9.99609 21.7344 10.3086 21.7344 10.3516 21.9492C10.7383 23.918 11.0859 26.668 11.3516 28.7539C12.3789 36.8945 12.9844 40.8086 15.4492 40.8086C17.75 40.8086 18.2109 37.6406 19.1914 24.0859C19.5313 19.3437 20.0039 12.793 20.6875 9.24609C20.7305 9.02734 21.043 9.03125 21.082 9.25C21.8867 13.5117 22.5508 22.1602 23.0664 28.8906C24.6719 49.8047 25.4531 55.0703 28.2539 55.0703C31.1016 55.0703 31.8086 50.5117 32.9219 33.6836C33.207 29.4062 33.5625 24.0312 34.0391 20.75C34.0742 20.5273 34.3906 20.5156 34.4375 20.7383C34.9727 23.3438 35.457 27.2383 35.8242 30.1562C37.2578 41.6523 38.0586 45.9961 40.7891 45.9961C43.5859 45.9961 44.5703 42.7266 45.4414 39.8438C45.7031 38.9727 46.1289 37.5625 46.5312 36.7578C46.7305 36.3633 47.1719 36.1328 47.6016 36.2422C48.4961 36.4648 49.3086 37.1406 50.1562 37.8516C51.207 38.7305 52.293 39.6367 53.6719 39.6367C54.7148 39.6367 55.9531 39.2773 57.2695 38.875V57.0781H2.91406ZM57.2695 2.72266V36.0781C57.0938 36.1289 56.9102 36.1797 56.7422 36.2344C55.582 36.5898 54.3828 36.957 53.6719 36.957C53.2656 36.957 52.5273 36.3398 51.8711 35.793C50.6406 34.7617 49.1055 33.4844 46.9844 33.4844C44.5586 33.4844 43.7031 36.3242 42.875 39.0703C42.4766 40.3828 41.8594 42.4297 41.2031 43.0977C41.1055 43.1953 40.9453 43.168 40.8789 43.043C39.8984 41.1445 39.0234 34.1484 38.4844 29.8242C37.1523 19.1523 36.5234 15.6914 34.1953 15.5234C33.7344 15.4922 33.2813 15.6484 32.9141 15.9648C31.457 17.2383 31.0234 21.7891 30.2461 33.5078C29.8711 39.1602 29.3438 47.1289 28.5 50.75C28.4531 50.957 28.1562 50.957 28.1094 50.75C27.1094 46.5352 26.3359 36.4336 25.7383 28.6836C24.1328 7.76562 23.4648 4.35547 20.9727 4.35547C18.3047 4.35547 17.625 8.51953 16.5156 23.8945C16.2422 27.7109 15.8984 33.2852 15.457 36.1797C15.4258 36.4023 15.1133 36.4102 15.0664 36.1953C14.6484 34.3555 14.2852 30.6055 14.0078 28.418C13.0195 20.5781 12.4844 17.1133 10.1875 17.1133C7.77344 17.1133 7.30078 20.8242 6.58203 26.4375C6.3125 28.5547 5.92578 31.5742 5.46875 32.918C5.42188 33.0586 5.25391 33.1016 5.14453 33.0078C4.61328 32.5469 4.01172 31.6836 3.53516 31C3.33203 30.7031 3.125 30.4102 2.91406 30.1211V2.72266H57.2695ZM0.441406 59.5469H59.7383V0.253906H0.441406V59.5469Z" fill="#595959"/>
  <path d="M2.91406 57.0781V34.5625C3.63672 35.3242 4.47266 35.9102 5.51562 36C8.03516 36.2305 8.51953 32.4609 9.24219 26.7773C9.41797 25.3867 9.66406 23.4687 9.95312 21.9492C9.99609 21.7344 10.3086 21.7344 10.3516 21.9492C10.7383 23.918 11.0859 26.668 11.3516 28.7539C12.3789 36.8945 12.9844 40.8086 15.4492 40.8086C17.75 40.8086 18.2109 37.6406 19.1914 24.0859C19.5313 19.3437 20.0039 12.793 20.6875 9.24609C20.7305 9.02734 21.043 9.03125 21.082 9.25C21.8867 13.5117 22.5508 22.1602 23.0664 28.8906C24.6719 49.8047 25.4531 55.0703 28.2539 55.0703C31.1016 55.0703 31.8086 50.5117 32.9219 33.6836C33.207 29.4062 33.5625 24.0312 34.0391 20.75C34.0742 20.5273 34.3906 20.5156 34.4375 20.7383C34.9727 23.3438 35.457 27.2383 35.8242 30.1562C37.2578 41.6523 38.0586 45.9961 40.7891 45.9961C43.5859 45.9961 44.5703 42.7266 45.4414 39.8438C45.7031 38.9727 46.1289 37.5625 46.5312 36.7578C46.7305 36.3633 47.1719 36.1328 47.6016 36.2422C48.4961 36.4648 49.3086 37.1406 50.1562 37.8516C51.207 38.7305 52.293 39.6367 53.6719 39.6367C54.7148 39.6367 55.9531 39.2773 57.2695 38.875V57.0781H2.91406ZM57.2695 2.72266V36.0781C57.0938 36.1289 56.9102 36.1797 56.7422 36.2344C55.582 36.5898 54.3828 36.957 53.6719 36.957C53.2656 36.957 52.5273 36.3398 51.8711 35.793C50.6406 34.7617 49.1055 33.4844 46.9844 33.4844C44.5586 33.4844 43.7031 36.3242 42.875 39.0703C42.4766 40.3828 41.8594 42.4297 41.2031 43.0977C41.1055 43.1953 40.9453 43.168 40.8789 43.043C39.8984 41.1445 39.0234 34.1484 38.4844 29.8242C37.1523 19.1523 36.5234 15.6914 34.1953 15.5234C33.7344 15.4922 33.2813 15.6484 32.9141 15.9648C31.457 17.2383 31.0234 21.7891 30.2461 33.5078C29.8711 39.1602 29.3438 47.1289 28.5 50.75C28.4531 50.957 28.1562 50.957 28.1094 50.75C27.1094 46.5352 26.3359 36.4336 25.7383 28.6836C24.1328 7.76562 23.4648 4.35547 20.9727 4.35547C18.3047 4.35547 17.625 8.51953 16.5156 23.8945C16.2422 27.7109 15.8984 33.2852 15.457 36.1797C15.4258 36.4023 15.1133 36.4102 15.0664 36.1953C14.6484 34.3555 14.2852 30.6055 14.0078 28.418C13.0195 20.5781 12.4844 17.1133 10.1875 17.1133C7.77344 17.1133 7.30078 20.8242 6.58203 26.4375C6.3125 28.5547 5.92578 31.5742 5.46875 32.918C5.42188 33.0586 5.25391 33.1016 5.14453 33.0078C4.61328 32.5469 4.01172 31.6836 3.53516 31C3.33203 30.7031 3.125 30.4102 2.91406 30.1211V2.72266H57.2695ZM0.441406 59.5469H59.7383V0.253906H0.441406V59.5469Z" fill="#595959"/>
  <path d="M69.082 11.8438C69.1758 11.836 69.2578 11.8203 69.3398 11.8203C70.3125 11.8164 71.2891 11.8164 72.2656 11.8164C72.4102 11.8164 72.5352 11.8125 72.625 11.9805C72.9531 12.586 73.4805 12.9571 74.1328 13.1563C75.0195 13.4258 75.9141 13.4571 76.793 13.1211C77.3828 12.8946 77.6836 12.4063 77.6602 11.7774C77.6406 11.3125 77.4336 10.9649 77.0117 10.75C76.5469 10.5157 76.0469 10.418 75.5391 10.336C74.6836 10.1992 73.8242 10.0703 72.9727 9.90237C72.332 9.77346 71.7227 9.52737 71.1602 9.17581C70.0742 8.48831 69.5195 7.49612 69.4336 6.21878C69.3047 4.23831 70.4336 2.95315 71.9336 2.33596C72.668 2.03518 73.4414 1.89456 74.2266 1.85159C75.0859 1.80862 75.9414 1.8555 76.7852 2.0469C77.5586 2.22268 78.2773 2.52737 78.9297 2.97659C79.8047 3.57425 80.3359 4.41409 80.6484 5.40628C80.6602 5.44143 80.6641 5.47659 80.668 5.51175C80.6719 5.53518 80.6641 5.55862 80.6602 5.60159C80.582 5.6055 80.5039 5.62112 80.4219 5.62112C79.4961 5.62112 78.5664 5.62112 77.6367 5.62112C77.4961 5.62112 77.3633 5.63284 77.2578 5.49221C76.7344 4.7969 75.9805 4.56643 75.1641 4.49612C74.6172 4.44925 74.0664 4.46878 73.5508 4.69143C73.1484 4.86331 72.8438 5.13284 72.7812 5.59768C72.7148 6.09378 72.8945 6.45706 73.332 6.69925C73.6914 6.89846 74.082 6.99221 74.4844 7.05471C75.4258 7.19534 76.3711 7.32425 77.3047 7.48831C77.9375 7.60159 78.5469 7.81253 79.1172 8.12112C80.2266 8.72268 80.8477 9.66018 80.9961 10.9024C81.0664 11.5078 81.0625 12.1133 80.9062 12.711C80.5586 14.0586 79.6836 14.9375 78.4375 15.4844C77.5508 15.875 76.6133 16.0157 75.6562 16.0313C74.4297 16.0547 73.2305 15.918 72.1016 15.4063C71.4648 15.1172 70.8867 14.75 70.3828 14.2657C69.7383 13.6407 69.3594 12.8711 69.1016 12.0313C69.0859 11.9766 69.0898 11.918 69.082 11.8438Z" fill="#595959"/>
  <path d="M75.7148 26.6211C75.6875 26.625 75.6641 26.6289 75.6406 26.6289C75.0625 28.1836 74.4844 29.7383 73.8906 31.332H77.4648C76.8711 29.7383 76.293 28.1797 75.7148 26.6211ZM77.5312 22.7539C79.2852 27.3008 81.0352 31.8477 82.8086 36.4492C81.6445 36.4609 80.5234 36.4492 79.3828 36.4531C79.082 35.6641 78.7891 34.8867 78.4961 34.1016H72.8594C72.5664 34.875 72.2773 35.6523 71.9805 36.4375H68.7266C70.4766 31.8555 72.2148 27.3086 73.957 22.7539H77.5312Z" fill="#595959"/>
  <path d="M73.9727 54.168H81.293C81.293 55.1563 81.293 56.1133 81.293 57.0703C81.043 57.1406 71.2617 57.168 70.7266 57.0938V43.5117C70.9648 43.4258 73.5117 43.4024 73.9727 43.4883V54.168Z" fill="#595959"/>
</svg>
