<svg width="151" height="60" viewBox="0 0 151 60" fill="none"
  xmlns="http://www.w3.org/2000/svg">
  <path d="M68.6406 11.8438C68.7344 11.836 68.8164 11.8203 68.8945 11.8203C69.8711 11.8164 70.8477 11.8164 71.8242 11.8164C71.9688 11.8164 72.0898 11.8125 72.1797 11.9805C72.5078 12.586 73.0391 12.9571 73.6914 13.1563C74.5781 13.4258 75.4727 13.4571 76.3516 13.1211C76.9375 12.8946 77.2422 12.4063 77.2188 11.7774C77.1992 11.3125 76.9922 10.9649 76.5703 10.75C76.1055 10.5157 75.6055 10.418 75.0977 10.336C74.2422 10.1992 73.3828 10.0703 72.5312 9.90237C71.8906 9.77346 71.2812 9.52737 70.7188 9.17581C69.6328 8.48831 69.0781 7.49612 68.9922 6.21878C68.8633 4.23831 69.9922 2.95315 71.4922 2.33596C72.2266 2.03518 73 1.89456 73.7852 1.85159C74.6445 1.80862 75.5 1.8555 76.3398 2.0469C77.1172 2.22268 77.8359 2.52737 78.4883 2.97659C79.3633 3.57425 79.8945 4.41409 80.207 5.40628C80.2188 5.44143 80.2227 5.47659 80.2266 5.51175C80.2266 5.53518 80.2227 5.55862 80.2148 5.60159C80.1406 5.6055 80.0586 5.62112 79.9805 5.62112C79.0508 5.62112 78.125 5.62112 77.1953 5.62112C77.0547 5.62112 76.9219 5.63284 76.8125 5.49221C76.293 4.7969 75.5391 4.56643 74.7227 4.49612C74.1758 4.44925 73.625 4.46878 73.1094 4.69143C72.707 4.86331 72.4023 5.13284 72.3398 5.59768C72.2734 6.09378 72.4531 6.45706 72.8906 6.69925C73.25 6.89846 73.6406 6.99221 74.043 7.05471C74.9844 7.19534 75.9258 7.32425 76.8633 7.48831C77.4961 7.60159 78.1055 7.81253 78.6758 8.12112C79.7852 8.72268 80.4063 9.66018 80.5547 10.9024C80.625 11.5078 80.6211 12.1133 80.4648 12.711C80.1172 14.0586 79.2422 14.9375 77.9961 15.4844C77.1094 15.875 76.1719 16.0157 75.2148 16.0313C73.9883 16.0547 72.7891 15.918 71.6602 15.4063C71.0234 15.1172 70.4453 14.75 69.9414 14.2657C69.2969 13.6407 68.918 12.8711 68.6602 12.0313C68.6406 11.9766 68.6484 11.918 68.6406 11.8438Z" fill="#FF3300"/>
  <path d="M95.2735 10.7265C95.2032 10.3437 95.1719 9.9453 95.0547 9.57811C94.8633 8.98827 94.5039 8.52342 93.875 8.33592C92.918 8.05077 92 8.54296 91.6446 9.55077C91.4102 10.2031 91.3789 10.8828 91.5508 11.5547C91.625 11.8594 91.7539 12.1601 91.9141 12.4336C92.5235 13.4648 94.1602 13.5 94.8125 12.4101C95.1211 11.8906 95.2344 11.3281 95.2735 10.7265ZM88.4024 16.8633C88.5391 16.8555 88.6329 16.8437 88.7266 16.8437C89.668 16.8437 90.6055 16.8476 91.5469 16.8437C91.7227 16.8398 91.8555 16.8906 91.9922 17.0078C92.6368 17.5469 93.8633 17.5703 94.543 17.0742C94.8516 16.8515 95.0469 16.5469 95.1446 16.1758C95.2383 15.8164 95.2657 14.8555 95.1836 14.3711C95.1328 14.4297 95.0977 14.4687 95.0664 14.5117C94.0079 15.9648 92.3047 16.1758 90.8555 15.5078C89.7149 14.9844 89.0157 14.0547 88.6407 12.8828C88.1719 11.4375 88.1797 9.97655 88.6524 8.53124C89.0235 7.39061 89.7032 6.46874 90.8243 5.96483C91.8594 5.49608 92.9141 5.43358 93.9571 5.96092C94.3672 6.17186 94.7071 6.46483 94.9766 6.83592C95.0313 6.91014 95.0899 6.97655 95.1954 7.11327V5.81249H98.2657C98.2774 5.91014 98.293 5.99999 98.293 6.09374C98.2969 9.26952 98.2969 12.4492 98.2891 15.6289C98.2891 15.957 98.2422 16.293 98.1758 16.6172C97.8047 18.3437 96.6524 19.2851 95.0079 19.6758C93.918 19.9336 92.8086 19.9375 91.7149 19.6875C90.7578 19.4726 89.9063 19.0351 89.2149 18.3164C88.9141 18.0039 88.6836 17.6484 88.5157 17.2461C88.4688 17.1328 88.4454 17.0039 88.4024 16.8633Z" fill="#FF3300"/>
  <path d="M75.2695 26.6211C75.2461 26.625 75.2227 26.6289 75.1953 26.6289C74.6172 28.1836 74.043 29.7383 73.4492 31.332H77.0195C76.4297 29.7383 75.8516 28.1797 75.2695 26.6211ZM77.0898 22.7539C78.8437 27.3008 80.5938 31.8477 82.3672 36.4492C81.2031 36.4609 80.082 36.4492 78.9414 36.4531C78.6406 35.6641 78.3477 34.8867 78.0547 34.1016H72.418C72.125 34.875 71.8359 35.6523 71.5352 36.4375H68.2812C70.0352 31.8555 71.7734 27.3086 73.5156 22.7539H77.0898Z" fill="#FF3300"/>
  <path d="M98.0781 52.1367C98.082 52.7617 98.1719 53.3672 98.5273 53.9062C98.7695 54.2656 99.0859 54.5156 99.5156 54.6211C100.566 54.8828 101.48 54.3555 101.809 53.2852C101.992 52.6953 102.012 52.0937 101.918 51.4844C101.863 51.1055 101.734 50.7539 101.539 50.418C100.902 49.3125 99.0977 49.3164 98.4727 50.457C98.1797 50.9844 98.082 51.5469 98.0781 52.1367ZM98.0742 55.9023V57.1094H95.0312V43.0039C95.2891 42.9258 97.4727 42.8984 98.1016 42.9727C98.1055 43.4219 98.1094 43.8789 98.1094 44.3398C98.1094 44.793 98.1094 45.2422 98.1094 45.6953V48.5156C98.2148 48.3906 98.2734 48.3242 98.3242 48.2578C99.0313 47.3164 99.9805 46.8906 101.145 46.9375C102.805 47.0078 103.953 47.8594 104.586 49.3555C105.367 51.2031 105.348 53.0898 104.578 54.9453C104.199 55.8633 103.57 56.5898 102.641 56.9961C101.562 57.4648 100.473 57.5 99.3945 56.9805C98.9922 56.7891 98.6602 56.5039 98.375 56.1602C98.3008 56.0703 98.2305 55.9766 98.1562 55.8867C98.1289 55.8906 98.1016 55.8945 98.0742 55.9023Z" fill="#FF3300"/>
  <path d="M98.9531 31.4453C99 32.0937 99.0859 32.7109 99.4453 33.2617C100.121 34.2929 101.641 34.2656 102.285 33.2187C102.535 32.8125 102.641 32.3633 102.68 31.8984C102.742 31.1523 102.688 30.4258 102.305 29.7578C102.094 29.3906 101.797 29.1328 101.387 29.0117C100.387 28.7148 99.457 29.2383 99.1563 30.2929C99.0508 30.6679 99.0195 31.0625 98.9531 31.4453ZM102.656 27.6328V26.5273C102.934 26.4492 105.34 26.4336 105.746 26.5078V36.4336H102.707V35.3125C102.688 35.3086 102.668 35.3047 102.645 35.3008C102.605 35.3515 102.559 35.3984 102.523 35.4492C101.98 36.2109 101.223 36.5781 100.309 36.6523C98.3281 36.8086 96.7539 35.6523 96.1523 33.6172C95.7305 32.1914 95.7266 30.75 96.1523 29.3242C96.5078 28.1328 97.1836 27.1718 98.3398 26.6406C99.4102 26.1484 100.504 26.1093 101.574 26.6601C101.785 26.7695 101.98 26.9179 102.156 27.0742C102.32 27.2187 102.453 27.4023 102.656 27.6328Z" fill="#FF3300"/>
  <path d="M89.2461 52.168C89.2344 51.5625 89.1563 50.9961 88.8711 50.4649C88.2578 49.3047 86.5234 49.3555 85.9258 50.4414C85.7227 50.8164 85.6055 51.2109 85.5664 51.625C85.4883 52.3828 85.5313 53.125 85.9102 53.8086C86.2422 54.4024 86.7578 54.6914 87.4336 54.6836C88.1055 54.6758 88.582 54.3594 88.8945 53.7734C89.168 53.2656 89.2305 52.7149 89.2461 52.168ZM89.1992 48.2109V47.1992C89.5156 47.1172 91.9688 47.1133 92.293 47.1914V57.0664C92.043 57.1445 89.7149 57.1602 89.2578 57.0859V55.918C89.1524 56.0313 89.0977 56.0781 89.0547 56.1406C88.5156 56.8828 87.7695 57.2539 86.8711 57.3242C84.8555 57.4922 83.2891 56.3086 82.6914 54.2774C82.2734 52.8633 82.2695 51.4336 82.6875 50.0195C83.043 48.8164 83.7227 47.8438 84.8945 47.3086C85.9531 46.8281 87.0352 46.7852 88.0977 47.3242C88.3047 47.4336 88.5039 47.5781 88.6797 47.7305C88.8477 47.8789 88.9805 48.0586 89.1328 48.2266C89.1563 48.2227 89.1797 48.2149 89.1992 48.2109Z" fill="#FF3300"/>
  <path d="M119.691 10.8047C119.656 10.2539 119.586 9.72658 119.344 9.2344C119.039 8.62111 118.555 8.27346 117.848 8.26565C117.137 8.25783 116.621 8.57033 116.285 9.19143C116.07 9.58986 115.988 10.0196 115.957 10.461C115.91 11.1797 115.977 11.8867 116.363 12.5274C116.586 12.8985 116.895 13.1602 117.32 13.2696C118.324 13.5352 119.184 13.0391 119.484 11.9922C119.594 11.6055 119.625 11.1992 119.691 10.8047ZM122.699 5.81252V15.7539H119.66V14.6446C119.637 14.6406 119.613 14.6328 119.59 14.6289C119.551 14.6797 119.508 14.7305 119.473 14.7813C118.938 15.5274 118.188 15.8985 117.293 15.9766C115.32 16.1406 113.785 15.0235 113.16 13.1133C112.664 11.586 112.66 10.043 113.148 8.51565C113.512 7.38283 114.188 6.47268 115.293 5.96877C116.348 5.4844 117.426 5.44143 118.496 5.96486C118.93 6.17971 119.27 6.50393 119.566 6.95315C119.676 6.5508 119.563 6.18361 119.652 5.81252H122.699Z" fill="#FF3300"/>
  <path d="M113.148 26.4766H116.645C117.34 28.3555 118.039 30.2461 118.742 32.1367C118.766 32.1367 118.789 32.1406 118.816 32.1445C119.527 30.2656 120.195 28.3672 120.906 26.4883H124.039C122.32 31.1133 120.617 35.6992 118.906 40.2969H115.773C115.82 40.168 115.855 40.0625 115.895 39.9609C116.305 38.8828 116.711 37.8008 117.133 36.7266C117.215 36.5078 117.211 36.3281 117.121 36.1172C115.848 33.0508 114.582 29.9805 113.316 26.9141C113.266 26.7852 113.219 26.6523 113.148 26.4766Z" fill="#FF3300"/>
  <path d="M110.645 15.7617H107.543V15.336C107.543 13.6797 107.551 12.0274 107.539 10.375C107.535 10.0547 107.5 9.7305 107.418 9.42191C107.25 8.78128 106.73 8.37894 106.066 8.34378C105.844 8.32816 105.609 8.32815 105.391 8.37112C104.719 8.50394 104.254 9.03519 104.145 9.76566C104.117 9.97659 104.109 10.1914 104.109 10.4063C104.105 12.0469 104.109 13.6914 104.109 15.3321V15.7617H101.02V5.81253H104.094V6.99222C104.211 6.88675 104.27 6.83987 104.316 6.78519C105.035 5.93753 105.969 5.57425 107.062 5.58597C107.844 5.59769 108.57 5.793 109.195 6.27737C109.961 6.86331 110.387 7.65628 110.562 8.58987C110.617 8.89065 110.652 9.20315 110.652 9.51175C110.66 11.5078 110.66 13.5078 110.656 15.5078C110.656 15.5782 110.648 15.6524 110.645 15.7617Z" fill="#FF3300"/>
  <path d="M87.1484 36.4375H84.1133C84.039 36.1797 84.0273 26.875 84.1015 26.4844H87.1484V27.6992C87.2461 27.5937 87.2969 27.5469 87.3359 27.4961C88.0429 26.6328 88.9726 26.2617 90.0625 26.2617C90.5664 26.2617 91.0586 26.3398 91.5273 26.5391C92.4101 26.9102 93 27.5664 93.3672 28.4336C93.582 28.957 93.7031 29.5039 93.707 30.0664C93.7148 32.1133 93.7109 34.1602 93.7109 36.207C93.7109 36.2773 93.7031 36.3437 93.6953 36.4336H90.582V36.0391C90.582 34.3477 90.5859 32.6602 90.5781 30.9688C90.5742 30.6836 90.5469 30.3945 90.4765 30.1211C90.3086 29.4687 89.7851 29.0586 89.1054 29.0156C88.9648 29.0039 88.8203 29.0039 88.6797 29.0156C88.0078 29.0547 87.4726 29.457 87.2851 30.1016C87.1992 30.3828 87.1562 30.6836 87.1562 30.9766C87.1445 32.6562 87.1484 34.332 87.1484 36.0117V36.4375Z" fill="#FF3300"/>
  <path d="M73.5312 54.168H80.8516C80.8516 55.1563 80.8516 56.1133 80.8516 57.0703C80.6016 57.1406 70.8203 57.168 70.2852 57.0938V43.5117C70.5234 43.4258 73.0703 43.4024 73.5312 43.4883V54.168Z" fill="#FF3300"/>
  <path d="M2.47266 57.0781V34.5625C3.19531 35.3242 4.03125 35.9102 5.07422 36C7.59375 36.2305 8.07422 32.4609 8.80078 26.7773C8.97656 25.3867 9.22266 23.4687 9.51172 21.9492C9.55469 21.7344 9.86328 21.7344 9.90625 21.9492C10.2969 23.918 10.6445 26.668 10.9062 28.7539C11.9375 36.8945 12.543 40.8086 15.0078 40.8086C17.3086 40.8086 17.7695 37.6406 18.75 24.0859C19.0898 19.3437 19.5625 12.793 20.2461 9.24609C20.2891 9.02734 20.6016 9.03125 20.6406 9.25C21.4453 13.5117 22.1094 22.1602 22.625 28.8906C24.2305 49.8047 25.0117 55.0703 27.8125 55.0703C30.6602 55.0703 31.3672 50.5117 32.4805 33.6836C32.7656 29.4062 33.1211 24.0312 33.5977 20.75C33.6328 20.5273 33.9492 20.5156 33.9922 20.7383C34.5313 23.3438 35.0156 27.2383 35.3828 30.1562C36.8164 41.6523 37.6172 45.9961 40.3477 45.9961C43.1445 45.9961 44.1289 42.7266 45 39.8438C45.2617 38.9727 45.6875 37.5625 46.0898 36.7578C46.2891 36.3633 46.7305 36.1328 47.1602 36.2422C48.0547 36.4648 48.8633 37.1406 49.7148 37.8516C50.7656 38.7305 51.8516 39.6367 53.2305 39.6367C54.2734 39.6367 55.5117 39.2773 56.8281 38.875V57.0781H2.47266ZM56.8281 2.72266V36.0781C56.6523 36.1289 56.4688 36.1797 56.3008 36.2344C55.1406 36.5898 53.9414 36.957 53.2305 36.957C52.8242 36.957 52.0859 36.3398 51.4297 35.793C50.1992 34.7617 48.6641 33.4844 46.5391 33.4844C44.1133 33.4844 43.2617 36.3242 42.4336 39.0703C42.0352 40.3828 41.418 42.4297 40.7617 43.0977C40.6641 43.1953 40.5039 43.168 40.4375 43.043C39.4531 41.1445 38.582 34.1484 38.0391 29.8242C36.707 19.1523 36.082 15.6914 33.7539 15.5234C33.293 15.4922 32.8398 15.6484 32.4727 15.9648C31.0156 17.2383 30.582 21.7891 29.8047 33.5078C29.4297 39.1602 28.9023 47.1289 28.0586 50.75C28.0117 50.957 27.7148 50.957 27.668 50.75C26.668 46.5352 25.8945 36.4336 25.2969 28.6836C23.6914 7.76562 23.0234 4.35547 20.5273 4.35547C17.8633 4.35547 17.1836 8.51953 16.0742 23.8945C15.8008 27.7109 15.4531 33.2852 15.0156 36.1797C14.9844 36.4023 14.6719 36.4102 14.6211 36.1953C14.207 34.3555 13.8438 30.6055 13.5664 28.418C12.5742 20.5781 12.0391 17.1133 9.74609 17.1133C7.33203 17.1133 6.85938 20.8242 6.14062 26.4375C5.87109 28.5547 5.48437 31.5742 5.02734 32.918C4.98047 33.0586 4.8125 33.1016 4.69922 33.0078C4.16797 32.5469 3.57031 31.6836 3.09375 31C2.89062 30.7031 2.68359 30.4102 2.47266 30.1211V2.72266H56.8281ZM0 59.5469H59.2969V0.253906H0V59.5469Z" fill="#FF3300"/>
  <path d="M68.6406 11.8438C68.7344 11.836 68.8164 11.8203 68.8945 11.8203C69.8711 11.8164 70.8477 11.8164 71.8242 11.8164C71.9688 11.8164 72.0898 11.8125 72.1797 11.9805C72.5078 12.586 73.0391 12.9571 73.6914 13.1563C74.5781 13.4258 75.4727 13.4571 76.3516 13.1211C76.9375 12.8946 77.2422 12.4063 77.2188 11.7774C77.1992 11.3125 76.9922 10.9649 76.5703 10.75C76.1055 10.5157 75.6055 10.418 75.0977 10.336C74.2422 10.1992 73.3828 10.0703 72.5312 9.90237C71.8906 9.77346 71.2812 9.52737 70.7188 9.17581C69.6328 8.48831 69.0781 7.49612 68.9922 6.21878C68.8633 4.23831 69.9922 2.95315 71.4922 2.33596C72.2266 2.03518 73 1.89456 73.7852 1.85159C74.6445 1.80862 75.5 1.8555 76.3398 2.0469C77.1172 2.22268 77.8359 2.52737 78.4883 2.97659C79.3633 3.57425 79.8945 4.41409 80.207 5.40628C80.2188 5.44143 80.2227 5.47659 80.2266 5.51175C80.2266 5.53518 80.2227 5.55862 80.2148 5.60159C80.1406 5.6055 80.0586 5.62112 79.9805 5.62112C79.0508 5.62112 78.125 5.62112 77.1953 5.62112C77.0547 5.62112 76.9219 5.63284 76.8125 5.49221C76.293 4.7969 75.5391 4.56643 74.7227 4.49612C74.1758 4.44925 73.625 4.46878 73.1094 4.69143C72.707 4.86331 72.4023 5.13284 72.3398 5.59768C72.2734 6.09378 72.4531 6.45706 72.8906 6.69925C73.25 6.89846 73.6406 6.99221 74.043 7.05471C74.9844 7.19534 75.9258 7.32425 76.8633 7.48831C77.4961 7.60159 78.1055 7.81253 78.6758 8.12112C79.7852 8.72268 80.4063 9.66018 80.5547 10.9024C80.625 11.5078 80.6211 12.1133 80.4648 12.711C80.1172 14.0586 79.2422 14.9375 77.9961 15.4844C77.1094 15.875 76.1719 16.0157 75.2148 16.0313C73.9883 16.0547 72.7891 15.918 71.6602 15.4063C71.0234 15.1172 70.4453 14.75 69.9414 14.2657C69.2969 13.6407 68.918 12.8711 68.6602 12.0313C68.6406 11.9766 68.6484 11.918 68.6406 11.8438Z" fill="#FF3300"/>
  <path d="M75.2695 26.6211C75.2461 26.625 75.2227 26.6289 75.1953 26.6289C74.6172 28.1836 74.043 29.7383 73.4492 31.332H77.0195C76.4297 29.7383 75.8516 28.1797 75.2695 26.6211ZM77.0898 22.7539C78.8437 27.3008 80.5938 31.8477 82.3672 36.4492C81.2031 36.4609 80.082 36.4492 78.9414 36.4531C78.6406 35.6641 78.3477 34.8867 78.0547 34.1016H72.418C72.125 34.875 71.8359 35.6523 71.5352 36.4375H68.2812C70.0352 31.8555 71.7734 27.3086 73.5156 22.7539H77.0898Z" fill="#FF3300"/>
  <path d="M73.5312 54.168H80.8516C80.8516 55.1563 80.8516 56.1133 80.8516 57.0703C80.6016 57.1406 70.8203 57.168 70.2852 57.0938V43.5117C70.5234 43.4258 73.0703 43.4024 73.5312 43.4883V54.168Z" fill="#FF3300"/>
  <path d="M133.984 29.0312C133.887 29.039 133.793 29.0547 133.703 29.0547C132.871 29.0586 132.039 29.0547 131.207 29.0586C131.043 29.0586 130.922 29.0117 130.793 28.9023C130.113 28.3398 129.34 28.3047 128.543 28.5703C128.238 28.6718 128.062 28.914 128.066 29.2539C128.07 29.5625 128.227 29.8047 128.578 29.9023C128.918 29.9961 129.277 30.0312 129.629 30.0781C130.336 30.1797 131.043 30.2617 131.746 30.3672C131.945 30.3945 132.137 30.4687 132.328 30.539C133.652 31.0312 134.207 31.9218 134.27 33.2461C134.34 34.7422 133.562 35.8593 132.152 36.3672C131.621 36.5586 131.074 36.6562 130.512 36.6953C129.23 36.7851 127.969 36.7226 126.781 36.1484C125.891 35.7148 125.203 35.0937 124.879 34.1289C124.844 34.0273 124.816 33.9218 124.793 33.8164C124.785 33.7851 124.801 33.75 124.809 33.6992C124.902 33.6914 124.996 33.6797 125.086 33.6797C125.945 33.6758 126.801 33.6836 127.656 33.6718C127.84 33.6718 127.957 33.7226 128.082 33.8672C128.207 34.0156 128.379 34.1484 128.555 34.2304C129.195 34.539 129.871 34.539 130.539 34.3515C130.977 34.2304 131.176 33.9297 131.141 33.539C131.109 33.2265 130.965 32.9804 130.66 32.8906C130.379 32.8086 130.082 32.7734 129.789 32.7304C129.082 32.6289 128.367 32.5742 127.672 32.4258C127.227 32.332 126.781 32.1523 126.383 31.9258C124.59 30.9062 124.441 28.3633 126.082 27.1093C126.664 26.664 127.332 26.4258 128.047 26.3086C129.062 26.1406 130.086 26.1484 131.094 26.375C131.906 26.5586 132.645 26.9023 133.242 27.5117C133.617 27.8945 133.848 28.3593 133.98 28.8711C133.992 28.914 133.984 28.9648 133.984 29.0312Z" fill="#FF3300"/>
  <path d="M150.684 29.0312C150.594 29.039 150.5 29.0547 150.41 29.0547C149.578 29.0586 148.742 29.0547 147.91 29.0586C147.746 29.0586 147.625 29.0156 147.496 28.9062C146.816 28.3398 146.043 28.3047 145.246 28.5703C144.937 28.6719 144.766 28.9101 144.77 29.2539C144.773 29.5664 144.926 29.8008 145.281 29.9023C145.621 30 145.98 30.0312 146.332 30.0781C147.051 30.1797 147.773 30.2422 148.484 30.3789C149.074 30.4883 149.621 30.7305 150.074 31.1445C150.84 31.8359 151.031 32.7422 150.961 33.7148C150.863 35 150.145 35.832 148.98 36.3164C148.355 36.5742 147.695 36.6719 147.027 36.7109C146.277 36.7578 145.527 36.7422 144.789 36.582C143.84 36.3828 142.98 36.0039 142.285 35.3008C141.898 34.9062 141.664 34.4336 141.516 33.9101C141.5 33.8555 141.5 33.7969 141.488 33.7109C141.582 33.6992 141.66 33.6797 141.738 33.6797C142.617 33.6758 143.5 33.6758 144.383 33.6758C144.512 33.6758 144.637 33.668 144.727 33.8047C144.969 34.164 145.344 34.3242 145.746 34.4023C146.266 34.5078 146.789 34.5156 147.297 34.332C147.777 34.1562 147.957 33.7617 147.789 33.3086C147.707 33.0937 147.559 32.9375 147.344 32.8828C147.066 32.8125 146.785 32.7695 146.5 32.7305C145.797 32.6289 145.082 32.5703 144.387 32.4297C143.961 32.3437 143.535 32.1758 143.156 31.9687C141.184 30.8867 141.125 28.1172 143.039 26.9297C143.703 26.5195 144.434 26.3164 145.199 26.2422C146.066 26.164 146.938 26.1719 147.793 26.375C148.617 26.5664 149.367 26.9062 149.965 27.5351C150.371 27.9609 150.629 28.4922 150.684 29.0312Z" fill="#FF3300"/>
  <path d="M125.477 1.61328H128.57V15.7578H125.477V1.61328Z" fill="#FF3300"/>
  <path d="M111.625 36.4336H108.523V22.3281C108.793 22.25 111.242 22.2344 111.625 22.3164V36.4336Z" fill="#FF3300"/>
  <path d="M136.367 36.418V26.4883H139.48V36.3906C139.234 36.4688 136.879 36.4922 136.367 36.418Z" fill="#FF3300"/>
  <path d="M82.9688 5.8125H86.0703V15.7578H82.9688V5.8125Z" fill="#FF3300"/>
  <path d="M139.539 25.1562H136.32V22.1094H139.539V25.1562Z" fill="#FF3300"/>
  <path d="M82.9141 4.49612V1.42581C83.9844 1.39847 85.0469 1.418 86.1289 1.41409V4.49222C85.0625 4.50003 84 4.49222 82.9141 4.49612Z" fill="#FF3300"/>
</svg>
